<svg width="47" height="27" viewBox="0 0 47 27" fill="none" xmlns="http://www.w3.org/2000/svg">
<path d="M22.2393 4.35C22.0726 4.78333 21.8559 5.43333 21.5893 6.3C21.5559 6.3 21.5226 6.31667 21.4893 6.35C21.4893 6.55 21.3559 6.9 21.0893 7.4C20.8559 7.9 20.7226 8.25 20.6893 8.45C20.6559 8.45 20.6226 8.46667 20.5893 8.5C20.6226 8.86667 20.3226 9.85 19.6893 11.45C19.6893 11.75 19.5393 12.05 19.2393 12.35C19.1059 12.8833 18.8393 13.5 18.4393 14.2L17.9893 15.3C17.5559 16.1667 17.1226 17.0833 16.6893 18.05C16.6226 18.0167 16.5726 17.9833 16.5393 17.95C16.6059 18.0833 16.5059 18.4 16.2393 18.9C15.9059 19.7333 15.4059 20.9667 14.7393 22.6C14.7393 22.7 14.7559 22.8333 14.7893 23C14.7226 23.0667 14.5893 23.2667 14.3893 23.6C14.1226 23.6667 13.8726 23.7167 13.6393 23.75V23.6C13.4726 23.6667 13.0893 23.8333 12.4893 24.1C11.4559 24.3 10.9059 24.3667 10.8393 24.3C10.8059 23.9333 10.5726 22.9833 10.1393 21.45C10.1059 21.45 10.0893 21.4333 10.0893 21.4C9.28926 19.7667 8.07259 17.3167 6.43926 14.05C6.03926 13.65 5.68926 13.1 5.38926 12.4C5.35592 12.3667 5.30592 12.3333 5.23926 12.3C4.80592 11.5667 4.15592 10.45 3.28926 8.95C3.18926 8.91667 3.08926 8.83333 2.98926 8.7C2.78926 8.76667 2.52259 8.85 2.18926 8.95C1.98926 9.11667 1.77259 9.2 1.53926 9.2C1.33926 9.2 1.12259 9.13333 0.889258 9C0.789258 8.53333 0.655924 7.83333 0.489258 6.9C0.389258 6.56667 0.289258 6.33333 0.189258 6.2V5.85C0.422591 5.75 0.589258 5.61667 0.689258 5.45C0.855925 4.85 1.17259 3.95 1.63926 2.75C1.83926 2.78333 2.17259 2.8 2.63926 2.8C2.70592 2.73333 3.20592 2.71667 4.13926 2.75C4.70592 2.65 5.50592 2.41667 6.53926 2.05C6.63926 2.11667 6.83926 2.18333 7.13926 2.25C7.30592 2.75 7.57259 3.25 7.93926 3.75C8.13926 4.31667 8.48926 5.3 8.98926 6.7C9.08926 7 9.32259 7.45 9.68926 8.05L9.88926 8.55H9.78926V8.6H9.88926C9.95593 8.83333 10.1226 9.15 10.3893 9.55C10.4893 9.75 10.5559 9.91667 10.5893 10.05C11.1226 10.6833 11.3559 11.2167 11.2893 11.65C11.5559 11.8833 11.6893 12.1667 11.6893 12.5C11.7559 12.5333 11.8059 12.55 11.8393 12.55C12.0393 12.85 12.2726 13.2833 12.5393 13.85C12.6059 13.8167 12.6559 13.6833 12.6893 13.45C12.8893 13.25 13.2226 12.4167 13.6893 10.95C13.8226 10.7833 13.9226 10.4833 13.9893 10.05C14.8893 8.05 15.5893 6.13333 16.0893 4.3C16.1559 4.1 16.1893 3.95 16.1893 3.85C16.1893 3.75 16.1726 3.68333 16.1393 3.65C16.4059 3.21666 16.7393 2.93333 17.1393 2.8C18.2726 2.3 18.9226 2.05 19.0893 2.05C19.3559 2.05 19.5726 2.15 19.7393 2.35C20.0393 2.41667 20.8226 2.75 22.0893 3.35C22.2893 3.58333 22.3893 3.8 22.3893 4C22.3893 4.13333 22.3393 4.25 22.2393 4.35ZM18.5393 5.45H18.2893C18.3226 5.55 18.3393 5.61667 18.3393 5.65C18.4726 5.58333 18.5393 5.51667 18.5393 5.45ZM18.6393 2.9C18.0059 3.13333 17.5559 3.33333 17.2893 3.5C16.9559 4.2 16.7393 4.7 16.6393 5C16.1059 6.56667 15.7059 7.66667 15.4393 8.3C15.4059 8.43333 15.3893 8.53333 15.3893 8.6H15.2893C14.5226 10.7 14.0726 12.0833 13.9393 12.75H13.8393L13.7893 13.15C13.7226 13.2167 13.6393 13.4167 13.5393 13.75C13.4393 14.05 13.2393 14.25 12.9393 14.35C13.2726 15.05 13.5559 15.55 13.7893 15.85C13.9226 15.75 14.0393 15.4333 14.1393 14.9C14.3726 14.4667 14.6226 13.9667 14.8893 13.4C15.7893 11.2667 16.8726 8.25 18.1393 4.35C18.4059 3.71667 18.5726 3.23333 18.6393 2.9ZM9.43926 7.7H9.33926C9.30592 7.73333 9.28926 7.76667 9.28926 7.8C9.32259 7.8 9.37259 7.76667 9.43926 7.7ZM21.4393 4.05C21.2059 3.81667 21.0059 3.65 20.8393 3.55C20.8726 3.55 20.9059 3.53333 20.9393 3.5V3.45C20.8393 3.51667 20.5726 3.46667 20.1393 3.3C19.7059 3.13333 19.4559 3.01666 19.3893 2.95C18.9893 4.31667 18.6726 5.33333 18.4393 6L18.3893 5.95C18.2226 6.78333 18.0226 7.28333 17.7893 7.45C17.7893 7.55 17.7226 7.75 17.5893 8.05C16.9893 9.31667 16.5893 10.3167 16.3893 11.05C15.9893 12.45 15.7893 13.2167 15.7893 13.35C15.6226 13.7833 15.4893 14.1167 15.3893 14.35C15.2893 14.4167 15.2393 14.5167 15.2393 14.65C14.7059 15.3833 14.4393 16.3167 14.4393 17.45C14.1726 17.5833 13.9559 17.65 13.7893 17.65C13.4893 17.65 13.3393 17.4 13.3393 16.9C13.2726 16.7667 13.1559 16.5333 12.9893 16.2C12.4226 15.1667 11.9893 14.45 11.6893 14.05C11.6226 13.8833 11.3893 13.4333 10.9893 12.7C10.5226 11.5333 10.1226 10.7667 9.78926 10.4L8.93926 8.3C8.43926 7.23333 7.83926 5.83333 7.13926 4.1L7.03926 4C6.80592 3.53333 6.60592 3.2 6.43926 3H6.18926C6.02259 3.23333 5.23926 3.38333 3.83926 3.45C3.00592 3.38333 2.53926 3.35 2.43926 3.35C2.53926 4.95 2.60592 5.8 2.63926 5.9C3.20592 6 3.52259 6.03333 3.58926 6C3.75592 6.13333 3.93926 6.2 4.13926 6.2C4.37259 6.2 4.60592 6.11667 4.83926 5.95C5.37259 6.25 5.95592 7.01667 6.58926 8.25C7.12259 8.98333 7.42259 9.38333 7.48926 9.45C8.32259 11.35 8.78926 12.55 8.88926 13.05H9.03926L9.13926 13.4L13.4893 21.4C13.7559 21.8667 13.9393 22.1333 14.0393 22.2H14.0893L16.2393 17.2C16.7059 16.7333 17.8226 14.2333 19.5893 9.7C19.7226 8.96667 19.8559 8.56667 19.9893 8.5C19.9559 8.46667 19.9393 8.4 19.9393 8.3C19.9393 8.36667 20.1059 7.91667 20.4393 6.95L21.4393 4.05ZM3.98926 7.2V6.8H2.98926C2.52259 7.36667 2.28926 7.85 2.28926 8.25C2.95592 7.98333 3.47259 7.81667 3.83926 7.75C3.90592 7.41667 3.95592 7.23333 3.98926 7.2ZM2.03926 6.75C1.97259 6.65 1.90592 6.58333 1.83926 6.55C1.83926 5.91667 1.80592 5.23333 1.73926 4.5C1.57259 5.1 1.40592 5.58333 1.23926 5.95L1.43926 7.9C1.73926 7.46667 1.93926 7.08333 2.03926 6.75ZM13.2893 23C13.2893 22.8333 13.1893 22.6 12.9893 22.3C12.7893 22 12.6726 21.7833 12.6393 21.65C12.0726 20.75 11.6393 19.9667 11.3393 19.3C10.8393 18.6333 10.5226 17.95 10.3893 17.25C10.1226 17.0833 9.90592 16.7167 9.73926 16.15C8.77259 14.5167 8.25592 13.6 8.18926 13.4C8.18926 13.3667 8.17259 13.35 8.13926 13.35C7.63926 12.0833 7.27259 11.1167 7.03926 10.45L5.63926 8.3C5.47259 8.23333 5.22259 7.88333 4.88926 7.25H4.78926L4.63926 7.7C4.70592 7.73333 4.82259 7.81667 4.98926 7.95C4.98926 8.25 4.87259 8.41667 4.63926 8.45H3.98926C3.98926 8.78333 4.28926 9.3 4.88926 10C6.22259 12.2 7.08926 13.6 7.48926 14.2C7.68926 14.6 7.90593 15.0833 8.13926 15.65C8.60593 16.6833 9.37259 18.1667 10.4393 20.1L10.7893 20.7C11.2226 21.9667 11.5059 22.9167 11.6393 23.55C12.3726 23.35 12.9226 23.1667 13.2893 23ZM46.642 16.35C46.5753 16.6167 46.5253 17.05 46.492 17.65C46.192 18.9167 45.7253 20.25 45.092 21.65C44.9587 21.8167 44.8253 22.0333 44.692 22.3H44.642C44.3087 22.6667 43.9587 23 43.592 23.3C43.1253 23.5333 42.4253 23.9167 41.492 24.45C40.5587 24.6833 39.7253 24.9167 38.992 25.15C38.9587 25.15 38.942 25.1333 38.942 25.1C38.842 25.1667 38.2253 25.2833 37.092 25.45C36.1253 25.2833 35.4587 25.1833 35.092 25.15C34.4587 24.9167 33.5087 24.5833 32.242 24.15V24.1C32.142 24 31.992 23.9 31.792 23.8V23.75C31.592 23.5833 31.2587 23.4167 30.792 23.25V23.2C30.6587 23.1 30.492 23.0167 30.292 22.95C29.9587 22.8167 29.5753 22.6667 29.142 22.5C28.7087 22.3 28.392 22.0333 28.192 21.7C27.7587 21.4333 27.4253 21.2167 27.192 21.05V21C27.1253 21 27.042 20.9667 26.942 20.9V20.85C26.742 20.7167 26.442 20.55 26.042 20.35C25.9087 20.1167 25.7753 19.9833 25.642 19.95C25.4087 19.6167 25.1087 19.1333 24.742 18.5H24.692C24.392 18 23.9587 17.3 23.392 16.4C23.1587 15.7667 23.042 15.0333 23.042 14.2C23.042 13.3333 23.242 11.9667 23.642 10.1C24.0753 8.73333 24.6587 7.41667 25.392 6.15H25.492V6C25.692 5.66667 26.0587 5.25 26.592 4.75C26.592 4.71667 26.6087 4.66667 26.642 4.6H26.692C26.8253 4.2 27.142 3.91667 27.642 3.75C27.642 3.71667 27.6587 3.68333 27.692 3.65H27.742V3.55H27.842V3.45H27.892V3.4C28.092 3.2 28.392 2.95 28.792 2.65V2.6H28.842C28.9087 2.43333 29.142 2.25 29.542 2.05V1.95C30.0087 1.68333 30.7587 1.35 31.792 0.949998C32.492 0.749998 33.9587 0.649998 36.192 0.649998C36.892 0.749999 37.9253 0.983332 39.292 1.35C39.6253 1.51666 40.142 1.75 40.842 2.05V2.1C40.8753 2.13333 40.942 2.16667 41.042 2.2V2.25C41.1087 2.28333 41.3087 2.33333 41.642 2.4C41.8087 2.43333 41.892 2.6 41.892 2.9C42.192 3.56667 42.7587 4.45 43.592 5.55L43.642 5.9C43.542 5.93333 43.392 5.95 43.192 5.95L42.942 6.15V6.2C42.942 6.2 42.7253 6.43333 42.292 6.9L41.742 7.5V8C41.6753 8.03333 41.6087 8.05 41.542 8.05C41.3753 8.05 41.142 7.96667 40.842 7.8L40.742 8.05C40.6753 8.08333 40.5753 8.1 40.442 8.1C40.1753 8.1 39.7753 8 39.242 7.8C38.742 7.7 38.0087 7.56667 37.042 7.4V7.35C36.0087 7.35 35.092 7.41667 34.292 7.55C33.9587 7.65 33.342 7.93333 32.442 8.4V8.5H32.242V8.55C32.1087 8.58333 32.0087 8.61667 31.942 8.65V8.7C31.4753 8.96667 30.7753 9.35 29.842 9.85V9.9C29.0753 10.1667 28.692 10.45 28.692 10.75H28.642C28.442 11.0167 28.2587 11.2667 28.092 11.5C27.8587 12.4 27.792 13.2167 27.892 13.95C27.9587 14.0833 27.9753 14.1833 27.942 14.25H28.042C28.042 14.3833 28.0253 14.5 27.992 14.6C28.0587 14.9 28.142 15.4333 28.242 16.2C28.2753 16.2333 28.3087 16.25 28.342 16.25C28.342 16.3833 28.3753 16.55 28.442 16.75H28.542C28.8087 17.65 29.1587 18.1333 29.592 18.2C29.592 18.2333 29.8087 18.35 30.242 18.55C30.3753 18.6833 30.6087 18.85 30.942 19.05V19.15C31.042 19.1833 31.1587 19.2333 31.292 19.3V19.45C31.4587 19.4833 31.592 19.5333 31.692 19.6V19.7C32.6253 20.1667 33.392 20.4 33.992 20.4C34.3253 20.4 34.692 20.3833 35.092 20.35C36.8587 20.35 37.642 20.3333 37.442 20.3C37.4753 20.2667 37.492 20.2333 37.492 20.2C37.892 20.1333 38.6087 19.9333 39.642 19.6C39.742 19.4 39.842 19.0333 39.942 18.5L37.542 18.7C36.742 18.6667 35.9253 18.65 35.092 18.65C34.9587 18.5833 34.792 18.45 34.592 18.25H34.542V18.2C33.942 17.7667 33.4587 17.4667 33.092 17.3V17.2C32.4587 16.9667 32.142 16.7333 32.142 16.5C32.142 16.4 32.192 16.3 32.292 16.2L32.392 13.85C32.2587 13.6167 32.192 13.4 32.192 13.2C32.192 13 32.242 12.8167 32.342 12.65C32.5087 12.65 32.992 12.6833 33.792 12.75C33.9253 12.7167 34.3253 12.7 34.992 12.7L37.192 13.05H41.942C43.4087 13.05 44.142 13.05 44.142 13.05L44.242 13.15C44.4753 13.1833 44.6587 13.35 44.792 13.65H44.842C45.042 13.8833 45.292 14.2333 45.592 14.7H45.692V14.8H45.742C45.9087 14.9667 46.0753 15.2833 46.242 15.75C46.3087 15.7833 46.4087 15.8167 46.542 15.85C46.542 15.9167 46.5753 16.0833 46.642 16.35ZM36.292 26.35L36.192 26.4L36.142 26.3C36.1753 26.3 36.2253 26.3167 36.292 26.35ZM40.742 2.95H40.592V3.15H40.642V3.3H40.592V3.45C40.692 3.41667 40.742 3.25 40.742 2.95ZM42.592 5.5C42.5587 5.4 42.4587 5.28333 42.292 5.15C41.992 4.58333 41.7587 4.15 41.592 3.85C41.5253 3.78333 41.4587 3.7 41.392 3.6H41.292C40.992 4.16667 40.7753 4.53333 40.642 4.7C40.1753 5.3 39.942 5.7 39.942 5.9C39.942 6.06667 39.992 6.18333 40.092 6.25C40.692 6.81667 41.0587 7.15 41.192 7.25C41.592 6.68333 42.0587 6.1 42.592 5.5ZM40.292 7.4C39.9587 6.93333 39.542 6.6 39.042 6.4C38.8753 6.16667 38.792 5.91667 38.792 5.65C37.6587 5.41667 36.4087 5.31667 35.042 5.35C34.0087 5.75 33.242 6.06667 32.742 6.3L31.492 6.85C31.492 6.78333 31.6253 6.65 31.892 6.45C31.1587 6.68333 30.5087 7.15 29.942 7.85C29.7087 7.91667 29.4087 8.2 29.042 8.7C28.7087 9.16667 28.542 9.53333 28.542 9.8C28.6753 9.7 28.7587 9.61667 28.792 9.55C28.892 9.55 28.9753 9.56667 29.042 9.6C29.6087 9.2 30.5587 8.61667 31.892 7.85C32.4587 7.51667 32.7753 7.33333 32.842 7.3C33.3087 7 34.0087 6.83333 34.942 6.8C35.1753 6.73333 35.4753 6.7 35.842 6.7C36.6087 6.7 37.6753 6.81667 39.042 7.05C39.8087 7.28333 40.2253 7.4 40.292 7.4ZM36.892 13.35V13.25H36.792C36.7587 13.2833 36.742 13.3167 36.742 13.35H36.892ZM44.092 16.85C44.1587 16.7833 44.1087 16.3833 43.942 15.65C43.8087 14.6833 43.6753 14.05 43.542 13.75C39.242 13.7167 36.642 13.65 35.742 13.55V13.5L34.642 13.35C34.2753 13.35 33.7753 13.3833 33.142 13.45C33.1087 13.6167 33.0753 14.1833 33.042 15.15H32.892V16.05C34.392 15.8833 35.5087 15.7333 36.242 15.6C36.8753 15.6 37.8087 15.65 39.042 15.75V15.65C39.2087 15.65 39.4753 15.6 39.842 15.5C40.2087 15.3667 40.492 15.3167 40.692 15.35C40.7253 15.5167 40.742 15.6167 40.742 15.65H40.842L40.792 16.35H40.692L40.642 16.7H40.742V16.5C40.7753 16.5 40.792 16.55 40.792 16.65C40.592 17.5833 40.492 18.3333 40.492 18.9H40.442C40.442 19 40.4087 19.1333 40.342 19.3C40.242 19.8667 39.992 20.2333 39.592 20.4C38.592 20.6667 37.8087 20.8833 37.242 21.05C35.3087 21.1167 33.8753 21.1833 32.942 21.25C32.0087 20.7833 31.342 20.4 30.942 20.1V20L30.642 19.85V19.8H30.592V19.7H30.492C29.892 19.2667 29.342 18.95 28.842 18.75C28.2753 18.1833 27.992 17.7167 27.992 17.35H27.892C27.892 17.2167 27.8587 17.1167 27.792 17.05C27.5253 16.25 27.3253 15.1333 27.192 13.7L27.242 12.75L26.992 12.55C26.992 11.95 27.1087 11.55 27.342 11.35C27.5087 10.8833 27.7087 10.3333 27.942 9.7C28.242 9.16667 28.592 8.6 28.992 8H29.042C29.242 7.73333 29.4087 7.53333 29.542 7.4H29.592C29.692 7.16667 29.8587 7.05 30.092 7.05V6.95L31.142 6.15C32.642 5.45 33.7753 4.95 34.542 4.65C34.7753 4.58333 35.892 4.55 37.892 4.55C38.5587 4.71667 39.0753 4.8 39.442 4.8C39.5087 4.66667 39.6253 4.48333 39.792 4.25C39.8253 4.05 39.8253 3.73333 39.792 3.3C39.7253 2.8 39.692 2.48333 39.692 2.35C39.6253 2.31666 39.5253 2.28333 39.392 2.25V2.2C39.192 2.13333 38.9753 2.03333 38.742 1.9C37.8753 1.7 37.2253 1.56667 36.792 1.5C36.2253 1.3 35.5253 1.21666 34.692 1.25C33.992 1.28333 33.2753 1.33333 32.542 1.4C31.5087 1.7 30.5087 2.16666 29.542 2.8V2.9C28.942 3.36667 28.5087 3.75 28.242 4.05C28.2087 4.15 28.0753 4.28333 27.842 4.45C27.6087 4.58333 27.492 4.71667 27.492 4.85C27.3587 4.88333 27.0753 5.15 26.642 5.65C26.342 6.01667 26.192 6.25 26.192 6.35H26.142C25.942 6.75 25.7753 7.05 25.642 7.25H25.592C25.292 7.75 25.142 8.05 25.142 8.15H25.042C24.9087 8.55 24.7753 8.91667 24.642 9.25C24.6087 9.71667 24.4753 10.1333 24.242 10.5L23.842 14.3C23.842 14.9 23.9087 15.4333 24.042 15.9C24.3087 16.4333 24.5253 16.8333 24.692 17.1H24.742L25.992 19H26.042C26.442 19.5 26.792 19.85 27.092 20.05V20.15C27.3587 20.1833 27.5587 20.3167 27.692 20.55H27.842V20.8C27.8753 20.8 27.892 20.7667 27.892 20.7C27.992 20.7 28.092 20.7333 28.192 20.8V20.95C28.3587 20.9833 28.4753 21 28.542 21V21.05C28.742 21.1833 29.092 21.3833 29.592 21.65V21.75H29.842V21.8C31.8087 22.5 33.8587 23.0333 35.992 23.4C37.1253 23.3667 38.642 23.0167 40.542 22.35C41.5753 21.75 42.2087 21.2 42.442 20.7H42.542C43.4087 19 43.9253 17.7167 44.092 16.85ZM45.842 15.9C45.7753 15.8667 45.6753 15.8333 45.542 15.8C45.4087 15.6333 45.3087 15.5333 45.242 15.5C44.8087 14.8667 44.542 14.55 44.442 14.55C44.6087 15.3833 44.7087 16.1167 44.742 16.75C44.7087 16.8167 44.6753 16.9833 44.642 17.25C44.6087 17.25 44.592 17.2333 44.592 17.2C44.5587 17.4667 44.542 17.5667 44.542 17.5H44.442C44.5087 17.6667 44.492 17.8 44.392 17.9C44.3587 17.8667 44.3253 17.85 44.292 17.85C44.292 17.95 44.3087 18.1 44.342 18.3C44.2753 18.3 44.242 18.3167 44.242 18.35L43.842 19.4H43.692C43.692 19.8 43.6087 20.0333 43.442 20.1C43.4087 20.2333 43.3753 20.3 43.342 20.3C43.4753 20.5333 43.0587 21.1667 42.092 22.2C41.8253 22.3667 41.6587 22.4833 41.592 22.55C39.992 23.6167 38.1253 24.15 35.992 24.15C35.9587 24.1833 35.942 24.2167 35.942 24.25C35.9087 24.2167 35.8753 24.1667 35.842 24.1L35.792 24.15C35.5587 24.15 35.192 24.0833 34.692 23.95C34.2253 23.8167 33.8753 23.75 33.642 23.75V23.8C34.242 24.1333 35.2087 24.3833 36.542 24.55V24.65C37.7087 24.6167 39.292 24.2833 41.292 23.65C41.492 23.55 41.6087 23.4667 41.642 23.4C41.9087 23.3667 42.0753 23.3 42.142 23.2C43.042 22.7667 43.8087 22.1333 44.442 21.3L45.142 19.5C45.142 19.4667 45.1587 19.45 45.192 19.45C45.7253 18.0167 45.9253 16.9167 45.792 16.15C45.792 16.0833 45.8087 16 45.842 15.9ZM39.992 17.7C40.0253 16.8 40.0253 16.3167 39.992 16.25C39.792 16.2833 39.542 16.35 39.242 16.45C38.9087 16.5167 38.4753 16.4833 37.942 16.35V16.45L36.492 16.3C35.192 16.5 34.2753 16.65 33.742 16.75C33.9753 17.0167 34.242 17.2 34.542 17.3V17.35C34.7753 17.4833 34.942 17.6 35.042 17.7C36.1753 17.8 36.792 17.8833 36.892 17.95C37.7587 17.9167 38.592 17.8333 39.392 17.7C39.692 17.7333 39.892 17.7333 39.992 17.7ZM32.942 14.95C32.9753 14.7833 32.9587 14.7 32.892 14.7C32.8587 14.7667 32.8753 14.85 32.942 14.95ZM27.892 11.85H27.842C27.7087 12.1833 27.6587 12.6167 27.692 13.15H27.792C27.8253 12.85 27.8587 12.4167 27.892 11.85ZM27.842 13.2C27.742 13.1667 27.692 13.2333 27.692 13.4C27.692 13.5 27.7087 13.6333 27.742 13.8C27.7753 13.6667 27.8087 13.4667 27.842 13.2ZM31.542 20.2V20.1H31.392V20.2H31.542ZM31.342 6.9C31.342 6.96667 31.2253 7.05 30.992 7.15C30.992 7.01667 31.1087 6.93333 31.342 6.9ZM30.942 7.15C30.942 7.25 30.842 7.35 30.642 7.45C30.7087 7.35 30.8087 7.25 30.942 7.15ZM30.342 7.75C30.242 7.85 30.142 7.93333 30.042 8V7.95C30.1087 7.85 30.2087 7.75 30.342 7.65V7.75ZM29.992 8.15C29.8253 8.25 29.6587 8.43333 29.492 8.7C29.4587 8.76667 29.3587 8.85 29.192 8.95C29.4587 8.58333 29.7087 8.28333 29.942 8.05C29.942 8.08333 29.9587 8.11667 29.992 8.15ZM29.192 9.1H29.142C29.1087 9.16667 29.0753 9.26667 29.042 9.4H28.942C28.942 9.43333 28.9253 9.45 28.892 9.45C28.892 9.38333 28.9087 9.3 28.942 9.2H29.042C29.042 9.16667 29.0587 9.1 29.092 9H29.192V9.1ZM33.042 15.65H32.942V15.55C32.9753 15.5167 33.0087 15.5 33.042 15.5V15.65Z" fill="black"/>
</svg>
